<svg xmlns="http://www.w3.org/2000/svg" viewBox="0 0 512 512" style="enable-background:new 0 0 511.999 511.999" xml:space="preserve"><path style="fill:#F25924" d="M176.37 174.39h53.99V337.6h-53.99z"/><path style="fill:#F25924" d="M230.37 352.13h-54c-8.02 0-14.52-6.5-14.52-14.52V174.39c0-8.02 6.5-14.52 14.52-14.52h54c8.01 0 14.51 6.5 14.51 14.52v163.22c0 8.02-6.5 14.52-14.51 14.52zm-39.48-29.04h24.96V188.91h-24.96v134.18z"/><path style="fill:#F25924" d="M281.62 174.39h53.99V337.6h-53.99z"/><path style="fill:#F25924" d="M335.62 352.13h-54c-8 0-14.51-6.5-14.51-14.52V174.39c0-8.02 6.5-14.52 14.52-14.52h54c8.01 0 14.51 6.5 14.51 14.52v163.22c0 8.02-6.5 14.52-14.52 14.52zm-39.48-29.04h24.96V188.91h-24.96v134.18z"/><path style="fill:#F25924" d="M256 511.88c-65.56 0-131.12-24.95-181.03-74.86a14.52 14.52 0 0 1 20.54-20.53c88.49 88.5 232.49 88.5 320.98 0 42.87-42.87 66.47-99.86 66.47-160.49s-23.6-117.62-66.47-160.49c-88.5-88.5-232.5-88.5-320.98 0-57.26 57.25-79.73 141.45-58.65 219.73a14.52 14.52 0 1 1-28.04 7.55A257.41 257.41 0 0 1 8.08 192a255.77 255.77 0 0 1 66.9-117.02c99.81-99.82 262.22-99.82 362.04 0C485.37 123.33 512 187.62 512 256s-26.63 132.67-74.98 181.02c-49.9 49.9-115.47 74.86-181.02 74.86z"/><path style="fill:#F25924" d="M256 452.03c-108.1 0-196.03-87.94-196.03-196.03S147.9 59.97 256 59.97c69.93 0 135.07 37.69 170 98.35a14.52 14.52 0 0 1-25.17 14.5A167.6 167.6 0 0 0 256 89C163.92 89 89 163.9 89 256s74.92 167 167 167 166.99-74.92 166.99-167a14.52 14.52 0 0 1 29.04 0c0 108.1-87.94 196.03-196.03 196.03z"/></svg>
